<svg width="24" height="24" viewBox="0 0 24 24" fill="none" xmlns="http://www.w3.org/2000/svg">
<path d="M12 0C5.37346 0 0 5.5085 0 12.3038C0 17.74 3.43837 22.3519 8.20639 23.9789C8.80609 24.0927 9.02632 23.712 9.02632 23.387C9.02632 23.0936 9.01512 22.1243 9.01004 21.0962C5.67152 21.8405 4.96707 19.6445 4.96707 19.6445C4.42121 18.2224 3.6347 17.8443 3.6347 17.8443C2.54598 17.0806 3.71676 17.0963 3.71676 17.0963C4.9218 17.1831 5.55632 18.3642 5.55632 18.3642C6.62659 20.2452 8.36356 19.7014 9.04834 19.3871C9.15601 18.5918 9.46705 18.0491 9.81019 17.7418C7.14488 17.4306 4.34291 16.3756 4.34291 11.6612C4.34291 10.318 4.81169 9.22033 5.57938 8.35871C5.45477 8.04876 5.04406 6.7974 5.69561 5.10263C5.69561 5.10263 6.70329 4.77194 8.99648 6.36384C9.95363 6.09114 10.9802 5.9545 12 5.94987C13.0199 5.9545 14.0472 6.09114 15.0062 6.36384C17.2967 4.77194 18.303 5.10263 18.303 5.10263C18.9561 6.7974 18.5452 8.04876 18.4206 8.35871C19.19 9.22033 19.6556 10.3179 19.6556 11.6612C19.6556 16.3868 16.8483 17.4274 14.1763 17.732C14.6066 18.1138 14.9902 18.8626 14.9902 20.0105C14.9902 21.6567 14.9762 22.9817 14.9762 23.387C14.9762 23.7144 15.1922 24.098 15.8006 23.9772C20.566 22.3485 24 17.7382 24 12.3038C24 5.5085 18.6273 0 12 0Z" fill="black" fill-opacity="0.86"/>
<path d="M4.4945 17.527C4.46815 17.5881 4.37422 17.6064 4.28886 17.5646C4.20181 17.5244 4.15287 17.441 4.1811 17.3797C4.20698 17.3168 4.30091 17.2992 4.38778 17.3415C4.47502 17.3815 4.52471 17.4657 4.4945 17.527ZM5.08479 18.067C5.02756 18.1214 4.91566 18.0962 4.83971 18.0102C4.76122 17.9244 4.74654 17.8098 4.80461 17.7545C4.86362 17.7001 4.97213 17.7255 5.05081 17.8114C5.1293 17.8981 5.14455 18.0121 5.08469 18.0671M5.48976 18.7579C5.41616 18.8103 5.29588 18.7612 5.22163 18.6518C5.14813 18.5425 5.14813 18.4112 5.22323 18.3586C5.29777 18.306 5.41616 18.3533 5.49145 18.4619C5.56486 18.5731 5.56486 18.7044 5.48967 18.758M6.17454 19.5582C6.10875 19.6325 5.96871 19.6126 5.86612 19.5111C5.76128 19.4119 5.73201 19.2711 5.79798 19.1967C5.86452 19.1222 6.00541 19.1431 6.10875 19.2438C6.21293 19.3428 6.24465 19.4846 6.17454 19.5582ZM7.05959 19.8284C7.03069 19.9247 6.89573 19.9685 6.75983 19.9276C6.62412 19.8854 6.53528 19.7725 6.56266 19.6751C6.5909 19.5781 6.72642 19.5325 6.86336 19.5763C6.99888 19.6183 7.08782 19.7303 7.05959 19.8284ZM8.06699 19.9429C8.07037 20.0444 7.95509 20.1286 7.81241 20.1304C7.66888 20.1336 7.55284 20.0515 7.55133 19.9517C7.55133 19.8492 7.66399 19.7658 7.80742 19.7634C7.9501 19.7605 8.06699 19.8421 8.06699 19.9429ZM9.0565 19.904C9.07363 20.003 8.97444 20.1047 8.8328 20.1317C8.69351 20.1578 8.56457 20.0967 8.54678 19.9986C8.52946 19.8971 8.63054 19.7955 8.76955 19.7691C8.91147 19.7438 9.03843 19.8034 9.0565 19.904Z" fill="black" fill-opacity="0.86"/>
</svg>
