<svg width="24" height="24" viewBox="0 0 24 24" fill="none" xmlns="http://www.w3.org/2000/svg">
<g clip-path="url(#clip0_82_25)">
<path d="M1.80554 2.96964H21.6867V22.0337H1.80554V2.96964Z" fill="white"/>
<path d="M0.0240479 1.71952C0.0240479 0.77012 0.816676 0 1.79399 0H22.2061C23.1834 0 23.976 0.77012 23.976 1.71952V22.2814C23.976 23.2308 23.1834 24 22.2061 24H1.79399C0.816676 24 0.0240479 23.2308 0.0240479 22.2814V1.71952Z" fill="black" fill-opacity="0.86"/>
<path d="M7.30286 20.0848V9.28H3.71872V20.0848H7.30286ZM5.51175 7.8053C6.7613 7.8053 7.5395 6.97542 7.5395 5.93831C7.51641 4.87807 6.7613 4.07132 5.5358 4.07132C4.30934 4.07132 3.50806 4.87807 3.50806 5.93831C3.50806 6.97542 4.28529 7.8053 5.48867 7.8053H5.51175ZM9.28636 20.0848H12.8705V14.0511C12.8705 13.7282 12.8936 13.4053 12.9888 13.1749C13.2476 12.5292 13.8372 11.8612 14.828 11.8612C16.1247 11.8612 16.6432 12.852 16.6432 14.3046V20.0839H20.2273V13.8892C20.2273 10.5706 18.4593 9.0265 16.1016 9.0265C14.1681 9.0265 13.3197 10.1089 12.8474 10.8463H12.8715V9.28H9.28636C9.33349 10.294 9.28636 20.0848 9.28636 20.0848Z" fill="white"/>
</g>
<defs>
<clipPath id="clip0_82_25">
<rect width="24" height="24" fill="white"/>
</clipPath>
</defs>
</svg>
